<svg width="164" height="104" viewBox="0 0 164 104" fill="none" xmlns="http://www.w3.org/2000/svg">
<g clip-path="url(#clip0_181_50)">
<path d="M164 0H0V104H164V0Z" fill="#CDC6BD"/>
<path d="M20.8727 28.2286L0 52V104H164V86.5V71V58.5V44.5714L156.545 40.1143L155.055 37.1429L152.073 38.6286L147.6 47.5429L146.109 38.6286L144.618 34.1714L143.127 35.6572L141.636 34.1714L140.145 32.6857L119.273 52L96.9091 8.91429L89.4545 2.97144L55.1636 56.4571L26.8364 28.2286L23.8545 26.7429L20.8727 28.2286Z" fill="#BBA497"/>
<path d="M93.9272 20.8L87.9635 26.7429L79.0181 19.3143L83.4908 11.8857L89.4544 2.97144L96.909 8.91429L102.873 19.3143L98.3999 23.7714L93.9272 20.8Z" fill="#FBF7F4"/>
<path d="M20.8729 28.2286L23.8547 26.7429L26.8365 28.2286L32.8002 34.1715L37.2729 38.6286L32.8002 41.6001L23.8547 43.0858L10.4365 40.1143L20.8729 28.2286Z" fill="#FBF7F4"/>
<path d="M143.127 35.6572L144.618 34.1715L146.109 38.6286L147.6 47.5429L138.655 40.1144L119.273 52.0001L140.146 32.6858L143.127 35.6572Z" fill="#FBF7F4"/>
<path d="M155.055 37.1428L164 44.5714V45.5V46.5L158.036 41.6L153.564 40.1143L147.6 47.5428L152.073 38.6285L155.055 37.1428Z" fill="#FBF7F4"/>
<path d="M164 98H0V104H164V98Z" fill="#7E876E"/>
<mask id="mask0_181_50" style="mask-type:luminance" maskUnits="userSpaceOnUse" x="23" y="53" width="40" height="49">
<path d="M62.6181 53.4856H23.8545V101.028H62.6181V53.4856Z" fill="white"/>
</mask>
<g mask="url(#mask0_181_50)">
<path d="M42.077 54.0335L29.2191 69.2157C28.8817 69.6056 28.6999 70.1256 28.6999 70.6548C28.6999 71.8434 29.5912 72.7999 30.6987 72.7999H32.8533L26.5022 79.6157C26.1388 80.0056 25.9311 80.5443 25.9311 81.1015C25.9311 82.2621 26.805 83.1999 27.8866 83.1999H30.7765L24.3217 91.5107C24.0189 91.9005 23.8545 92.3929 23.8545 92.9034C23.8545 94.1107 24.763 95.0856 25.8879 95.0856H40.4674V98.057C40.4674 99.7005 41.7048 101.028 43.2363 101.028C44.7678 101.028 46.0052 99.7005 46.0052 98.057V95.0856H60.5848C61.7096 95.0856 62.6181 94.1107 62.6181 92.9034C62.6181 92.3929 62.4538 91.9005 62.1509 91.5107L55.6961 83.1999H58.5861C59.6676 83.1999 60.5416 82.2621 60.5416 81.1015C60.5416 80.5443 60.3338 80.0056 59.9706 79.6157L53.6193 72.7999H55.774C56.8728 72.7999 57.7727 71.8434 57.7727 70.6548C57.7727 70.1256 57.5911 69.6056 57.2535 69.2157L44.3956 54.0335C44.1016 53.6805 43.6776 53.4856 43.2363 53.4856C42.795 53.4856 42.371 53.6805 42.077 54.0335Z" fill="#7E876E"/>
</g>
<mask id="mask1_181_50" style="mask-type:luminance" maskUnits="userSpaceOnUse" x="114" y="61" width="31" height="43">
<path d="M144.895 63.5862L118.161 61.3149L114.525 101.729L141.259 104L144.895 63.5862Z" fill="white"/>
</mask>
<g mask="url(#mask1_181_50)">
<path d="M143.28 64.9946L119.516 62.9243L117.698 83.6453L141.462 85.7156L143.28 64.9946Z" fill="#6C2D1C" stroke="#6C2D1C"/>
<path d="M143.28 64.9946L119.516 62.9243L117.698 83.6453L141.462 85.7156L143.28 64.9946Z" fill="#6C2D1C" stroke="#6C2D1C"/>
<path d="M129.97 80.2407L127.893 103.922" stroke="#6C2D1C"/>
<path d="M129.97 80.2407L127.893 103.922" stroke="#6C2D1C"/>
<path d="M136.736 66.2886C139.351 66.9628 141.097 69.4276 140.861 72.1183L140.84 72.3524C140.717 73.7537 140.088 75.0573 139.083 76.0239L138.63 76.4185L130.69 82.6217C130.421 82.8323 130.079 82.9354 129.736 82.9054C129.479 82.8832 129.234 82.7881 129.032 82.6344L128.846 82.4609L122.107 74.9791L121.73 74.512C120.908 73.3862 120.515 71.9941 120.638 70.5924L120.659 70.3583C120.88 67.8352 122.783 65.809 125.239 65.3918L125.736 65.3303C127.519 65.191 129.259 65.9225 130.405 67.2867L130.85 67.8147L131.04 68.0441L131.267 67.8513L131.797 67.408C132.992 66.4063 134.551 65.9591 136.081 66.1617L136.736 66.2886Z" fill="#A9573C" stroke="#C29181" stroke-width="0.2"/>
<path d="M136.697 66.4339C139.242 67.0894 140.94 69.4861 140.71 72.1051L140.689 72.3393C140.569 73.7049 139.96 74.977 138.981 75.919L138.538 76.3026L130.598 82.5057C130.358 82.6932 130.055 82.7818 129.749 82.755C129.52 82.7351 129.305 82.6507 129.124 82.5143L128.957 82.3628L122.218 74.8807L121.848 74.4264C121.048 73.3294 120.669 71.9714 120.789 70.6057L120.81 70.3716C121.025 67.916 122.875 65.9457 125.264 65.5398L125.749 65.48C127.484 65.3445 129.173 66.0541 130.289 67.3814L131.022 68.2521L131.895 67.5214C133.059 66.5465 134.573 66.1112 136.062 66.3085L136.697 66.4339Z" fill="#6C2D1C" stroke="#C29181" stroke-width="0.3"/>
<path d="M124.802 72.8982C124.813 72.7767 124.827 72.6644 124.845 72.561C124.863 72.4579 124.886 72.3577 124.915 72.2615C124.944 72.1619 124.976 72.0627 125.011 71.9637C125.05 71.8624 125.094 71.7539 125.145 71.639C125.178 71.5605 125.228 71.4657 125.293 71.3549C125.361 71.2443 125.439 71.1418 125.526 71.0473C125.616 70.9505 125.714 70.8702 125.819 70.8064C125.927 70.7431 126.036 70.716 126.146 70.7258L126.507 70.7573C126.507 70.7573 126.518 70.7612 126.532 70.768C126.549 70.7725 126.562 70.7766 126.571 70.7802C126.679 70.845 126.762 70.9208 126.818 71.0072C126.875 71.0907 126.91 71.1956 126.922 71.3219C126.938 71.4428 126.956 71.5593 126.975 71.6719C126.997 71.7816 127.004 71.8957 126.993 72.0142C126.981 72.156 126.964 72.2956 126.943 72.4335C126.925 72.572 126.91 72.7119 126.897 72.8534C126.897 72.8623 126.895 72.878 126.893 72.9012C126.891 72.9214 126.89 72.9446 126.887 72.9705C126.888 72.9969 126.887 73.0216 126.885 73.0447C126.883 73.0679 126.882 73.0822 126.881 73.0881C126.882 73.1113 126.882 73.1449 126.881 73.1886C126.88 73.2322 126.882 73.2804 126.886 73.3333C126.89 73.3859 126.894 73.4402 126.898 73.4958C126.902 73.5517 126.908 73.6031 126.915 73.6503C126.926 73.6949 126.939 73.7323 126.954 73.7629C126.969 73.7932 126.988 73.8096 127.011 73.8114C127.089 73.8182 127.171 73.8152 127.257 73.8024C127.346 73.7897 127.427 73.7647 127.5 73.7276C127.507 73.7222 127.521 73.7133 127.542 73.7005C127.567 73.6851 127.592 73.6699 127.617 73.6545C127.644 73.6366 127.669 73.6212 127.691 73.6087C127.715 73.5933 127.734 73.5817 127.746 73.5742C127.768 73.5615 127.785 73.5526 127.797 73.5478C127.812 73.5404 127.83 73.5377 127.85 73.5395C127.868 73.541 127.883 73.5481 127.897 73.5609C127.91 73.571 127.916 73.5861 127.915 73.6063C127.909 73.6726 127.866 73.7317 127.785 73.7828C127.707 73.8342 127.617 73.8788 127.515 73.9166C127.412 73.9543 127.309 73.9831 127.205 74.003C127.103 74.0206 127.028 74.0271 126.979 74.0229C126.915 74.0173 126.863 73.9807 126.822 73.913C126.784 73.8429 126.752 73.7626 126.725 73.6729C126.701 73.5805 126.68 73.4869 126.662 73.3921C126.647 73.2949 126.631 73.2147 126.613 73.152C126.562 73.264 126.492 73.3671 126.401 73.4613C126.314 73.5528 126.217 73.6316 126.109 73.6979C126.001 73.7644 125.885 73.814 125.763 73.847C125.64 73.88 125.517 73.891 125.396 73.8806C125.262 73.869 125.153 73.8331 125.068 73.7733C124.985 73.7106 124.922 73.6355 124.877 73.5469C124.835 73.456 124.809 73.3547 124.798 73.2429C124.791 73.1288 124.792 73.0138 124.802 72.8982ZM125.075 72.887C125.068 72.9737 125.061 73.062 125.056 73.152C125.054 73.2391 125.063 73.3199 125.083 73.3945C125.106 73.4694 125.144 73.5323 125.198 73.5838C125.255 73.6325 125.339 73.6616 125.449 73.6711C125.594 73.6836 125.726 73.6631 125.845 73.6093C125.964 73.5529 126.07 73.4762 126.163 73.3793C126.257 73.2798 126.338 73.1645 126.408 73.0337C126.479 72.9 126.537 72.7639 126.584 72.6252C126.632 72.4837 126.669 72.3456 126.695 72.211C126.725 72.0766 126.744 71.956 126.753 71.849C126.678 71.8425 126.643 71.8045 126.649 71.7352C126.653 71.6918 126.665 71.655 126.685 71.6247C126.706 71.5914 126.718 71.5489 126.723 71.4969C126.728 71.4333 126.722 71.37 126.704 71.3073C126.689 71.2449 126.662 71.1873 126.623 71.1344C126.587 71.0815 126.541 71.0396 126.485 71.0087C126.433 70.9748 126.373 70.9552 126.306 70.9493C126.17 70.9374 126.046 70.9647 125.935 71.0307C125.827 71.094 125.729 71.1817 125.64 71.2934C125.551 71.4051 125.473 71.5338 125.405 71.6791C125.339 71.822 125.283 71.9685 125.234 72.1188C125.189 72.2662 125.153 72.4089 125.127 72.5464C125.1 72.681 125.083 72.7945 125.075 72.887ZM130.78 73.0739C130.78 73.0739 130.757 73.0718 130.728 73.0694C130.703 73.064 130.682 73.0608 130.668 73.0596C130.546 73.0489 130.426 73.0516 130.307 73.0676C130.192 73.0837 130.078 73.0869 129.965 73.0771L129.943 73.075C129.937 73.0747 129.93 73.0697 129.922 73.0602C129.917 73.048 129.911 73.0373 129.911 73.0373L129.949 73.0014C129.979 72.9981 130.031 72.9895 130.105 72.9755C130.18 72.9618 130.257 72.9467 130.337 72.9303C130.42 72.9143 130.499 72.8994 130.573 72.8855C130.648 72.8715 130.7 72.8614 130.729 72.8552C130.75 72.8513 130.768 72.8442 130.784 72.8338C130.799 72.8293 130.813 72.8231 130.825 72.8156C130.837 72.8079 130.844 72.7954 130.844 72.7954L130.905 72.1061C130.909 72.0627 130.93 72.0353 130.969 72.0241C131.008 72.0101 131.045 72.0044 131.08 72.0077C131.1 72.0095 131.12 72.0154 131.14 72.0258C131.163 72.0339 131.169 72.0547 131.161 72.0888C131.159 72.1064 131.155 72.1337 131.149 72.1708C131.146 72.2086 131.142 72.249 131.138 72.2924C131.135 72.3328 131.131 72.3732 131.128 72.4136C131.127 72.4516 131.127 72.4778 131.125 72.492C131.123 72.5182 131.121 72.5515 131.121 72.5922C131.12 72.6329 131.12 72.6736 131.119 72.7143C131.121 72.7526 131.123 72.7862 131.123 72.8153C131.124 72.8415 131.129 72.8552 131.129 72.8552L131.911 73.0326C131.911 73.0326 131.919 73.0418 131.926 73.0599C131.936 73.0783 131.942 73.0935 131.944 73.1054L131.942 73.1226C131.94 73.1514 131.921 73.1731 131.884 73.1874C131.848 73.199 131.817 73.2034 131.791 73.201C131.692 73.1927 131.593 73.1707 131.494 73.136C131.398 73.1015 131.3 73.0798 131.202 73.0712C131.196 73.0706 131.18 73.0706 131.153 73.0715C131.13 73.0694 131.116 73.0679 131.11 73.0676L130.925 74.323C130.925 74.323 130.92 74.3355 130.91 74.3435C130.901 74.3486 130.893 74.3522 130.887 74.3545L130.883 74.3584L130.874 74.3578C130.839 74.3548 130.813 74.3364 130.796 74.3028C130.781 74.2666 130.771 74.2294 130.766 74.1911C130.764 74.1501 130.764 74.1124 130.767 74.0776C130.77 74.0428 130.772 74.017 130.772 74.017C130.772 73.9849 130.774 73.9267 130.779 73.8426C130.784 73.7558 130.789 73.6643 130.794 73.5686C130.799 73.4732 130.803 73.3832 130.805 73.2988C130.809 73.2117 130.813 73.1508 130.816 73.1163L130.78 73.0739ZM134.17 74.4701C134.165 74.4609 134.158 74.4443 134.148 74.4202C134.142 74.3935 134.134 74.3649 134.125 74.3352C134.116 74.3022 134.108 74.2725 134.102 74.2458C134.096 74.219 134.092 74.1982 134.09 74.1837C134.09 74.1837 134.09 74.1703 134.089 74.1442C134.092 74.1153 134.093 74.0922 134.095 74.0746C134.1 74.014 134.109 73.9522 134.12 73.8892C134.132 73.8259 134.15 73.7635 134.176 73.7017C134.186 73.6881 134.204 73.6604 134.232 73.6191C134.259 73.5748 134.288 73.5294 134.318 73.4824C134.351 73.4358 134.382 73.3918 134.409 73.3505C134.436 73.3062 134.456 73.2774 134.469 73.264C134.552 73.1431 134.654 73.0385 134.772 72.9497C134.894 72.8614 135.017 72.7788 135.141 72.7021C135.153 72.6944 135.179 72.6763 135.22 72.6478C135.263 72.6195 135.311 72.5904 135.364 72.5598C135.416 72.5295 135.464 72.5001 135.507 72.4718C135.554 72.4439 135.581 72.4273 135.591 72.4225C135.591 72.4225 135.598 72.4157 135.605 72.4106C135.611 72.4053 135.618 72.4029 135.618 72.4029L135.62 72.3898L135.62 72.3812C135.535 72.3563 135.451 72.3301 135.368 72.3025C135.289 72.2725 135.22 72.2341 135.159 72.1881C135.1 72.1393 135.053 72.0814 135.021 72.0145C134.989 71.9447 134.978 71.8591 134.987 71.7581C134.998 71.6339 135.042 71.5314 135.119 71.4506C135.196 71.3671 135.289 71.3008 135.395 71.2518C135.505 71.2004 135.62 71.1665 135.742 71.151C135.863 71.1323 135.974 71.1276 136.076 71.1365C136.128 71.1409 136.182 71.1499 136.236 71.1635C136.293 71.1742 136.344 71.1932 136.389 71.2206C136.436 71.2449 136.473 71.2788 136.498 71.3219C136.527 71.362 136.538 71.4155 136.532 71.4821C136.529 71.5225 136.513 71.5531 136.485 71.5739C136.46 71.5923 136.429 71.5997 136.391 71.5965C136.356 71.5935 136.333 71.5828 136.324 71.5644C136.314 71.543 136.301 71.5201 136.286 71.4954C136.273 71.4681 136.251 71.4428 136.218 71.4197C136.188 71.3968 136.135 71.3819 136.059 71.3754C135.996 71.3697 135.931 71.37 135.866 71.376C135.805 71.3793 135.744 71.3754 135.683 71.3644C135.633 71.3745 135.58 71.3932 135.525 71.4206C135.473 71.4452 135.425 71.4758 135.381 71.5127C135.337 71.5498 135.299 71.5932 135.269 71.6428C135.238 71.6898 135.221 71.7421 135.216 71.7997C135.208 71.8808 135.223 71.9447 135.26 71.9917C135.297 72.0356 135.345 72.0704 135.404 72.096C135.467 72.1188 135.533 72.1349 135.602 72.1438C135.674 72.153 135.74 72.1646 135.801 72.1786C135.864 72.1899 135.915 72.2089 135.953 72.2356C135.992 72.2594 136.009 72.2986 136.004 72.3536L136.001 72.3925L135.859 72.5069C135.844 72.5203 135.816 72.5381 135.776 72.561C135.739 72.5809 135.697 72.605 135.651 72.6329C135.608 72.6585 135.56 72.6876 135.507 72.7209C135.458 72.7518 135.41 72.7809 135.364 72.8091C135.32 72.8373 135.278 72.8626 135.238 72.8855C135.202 72.9083 135.175 72.9265 135.159 72.9398C135.072 72.999 134.983 73.0685 134.891 73.1478C134.8 73.2245 134.713 73.3101 134.632 73.4049C134.554 73.4973 134.486 73.5962 134.43 73.702C134.377 73.8051 134.346 73.913 134.336 74.0259C134.325 74.1587 134.342 74.2565 134.389 74.3189C134.436 74.3813 134.521 74.4178 134.643 74.4282C134.762 74.4386 134.882 74.4318 135.004 74.4074C135.129 74.3834 135.252 74.3489 135.373 74.304C135.494 74.2565 135.61 74.2024 135.72 74.1421C135.834 74.0791 135.939 74.0155 136.035 73.951L136.053 73.9525C136.076 73.9546 136.095 73.9635 136.112 73.9795C136.131 73.9929 136.14 74.011 136.138 74.0342C136.136 74.0488 136.126 74.0666 136.107 74.0883C136.09 74.1073 136.071 74.1246 136.049 74.14C136.03 74.156 136.013 74.1706 135.997 74.1837C135.982 74.1941 135.974 74.1991 135.974 74.1991C135.872 74.263 135.763 74.3248 135.646 74.3846C135.533 74.4419 135.416 74.4927 135.295 74.5376C135.177 74.5827 135.056 74.6172 134.931 74.6413C134.809 74.6627 134.686 74.668 134.561 74.6573C134.55 74.6561 134.522 74.6538 134.479 74.6499C134.435 74.6463 134.408 74.6437 134.396 74.6428C134.302 74.6083 134.227 74.551 134.17 74.4701Z" fill="#C29181"/>
</g>
</g>
<defs>
<clipPath id="clip0_181_50">
<rect width="164" height="104" rx="16" fill="white"/>
</clipPath>
</defs>
</svg>
